<svg width="32" height="33" viewBox="0 0 32 33" fill="none" xmlns="http://www.w3.org/2000/svg">
<path d="M2.76562 5.09375C2.59896 5.09375 2.46875 5.03646 2.375 4.92188C2.10417 4.65104 2.10417 4.38542 2.375 4.125C3.70833 2.79167 5.22917 1.77083 6.9375 1.0625C8.65625 0.354167 10.4583 0 12.3438 0C13.75 0 15.1146 0.203125 16.4375 0.609375C16.5833 0.651042 16.6927 0.744792 16.7656 0.890625C16.8385 1.02604 16.8542 1.16667 16.8125 1.3125C16.7604 1.45833 16.6667 1.56771 16.5312 1.64062C16.3958 1.71354 16.2552 1.72396 16.1094 1.67188C14.8698 1.30729 13.6146 1.125 12.3438 1.125C10.6146 1.125 8.95833 1.45312 7.375 2.10938C5.79167 2.76562 4.39062 3.70833 3.17188 4.9375C3.06771 5.04167 2.93229 5.09375 2.76562 5.09375ZM0.5625 16.3125C0.1875 16.3125 0 16.125 0 15.75C0 14.0417 0.317708 12.4427 0.953125 10.9531C1.59896 9.46354 2.48958 8.15625 3.625 7.03125C4.76042 5.89583 6.07292 5.01042 7.5625 4.375C9.05208 3.72917 10.6458 3.40625 12.3438 3.40625C12.7188 3.40625 12.9062 3.59375 12.9062 3.96875C12.9062 4.34375 12.7188 4.53125 12.3438 4.53125C10.8021 4.53125 9.35417 4.82292 8 5.40625C6.64583 5.97917 5.45312 6.78125 4.42188 7.8125C3.39062 8.84375 2.58333 10.0365 2 11.3906C1.41667 12.7448 1.125 14.1979 1.125 15.75C1.125 16.125 0.9375 16.3125 0.5625 16.3125ZM22.875 16.3125C22.875 16.6875 23.0625 16.875 23.4375 16.875C25.1562 16.875 26.7083 16.3802 28.0938 15.3906C29.1667 14.6302 30.0052 13.6667 30.6094 12.5C31.224 11.3229 31.5312 10.0781 31.5312 8.76562C31.5312 8.60938 31.474 8.47917 31.3594 8.375C31.2552 8.26042 31.125 8.20312 30.9688 8.20312C30.5938 8.20312 30.4062 8.39062 30.4062 8.76562C30.4062 9.90104 30.1406 10.974 29.6094 11.9844C29.0885 12.9948 28.3698 13.8281 27.4531 14.4844C26.2448 15.3281 24.9062 15.75 23.4375 15.75C23.0625 15.75 22.875 15.9375 22.875 16.3125ZM5.0625 14.7344L6.0625 15.7656H14.0156C15.8281 15.7656 17.5208 16.125 19.0938 16.8438C20.6771 17.5521 22.0625 18.5365 23.25 19.7969C24.4479 21.0469 25.3802 22.5 26.0469 24.1562C26.724 25.8021 27.0625 27.5625 27.0625 29.4375V30.1406C27.0625 30.8177 26.8281 31.4115 26.3594 31.9219C25.8906 32.4323 25.3021 32.6875 24.5938 32.6875H16.4219C14.6094 32.6875 12.9115 32.3281 11.3281 31.6094C9.75521 30.901 8.36979 29.9167 7.17188 28.6562C5.98438 27.3958 5.05208 25.9427 4.375 24.2969C3.70833 22.6406 3.375 20.8802 3.375 19.0156V12.5312C3.375 12.3021 3.45833 12.1042 3.625 11.9375C3.79167 11.7708 3.98958 11.6875 4.21875 11.6875C4.45833 11.6875 4.65625 11.7708 4.8125 11.9375C4.97917 12.1042 5.0625 12.3021 5.0625 12.5312V14.7344ZM16.4219 30.4219H24.5938C24.6458 30.4219 24.6927 30.401 24.7344 30.3594C24.7865 30.3073 24.8125 30.2344 24.8125 30.1406V29.4375C24.8125 27.8438 24.5312 26.3594 23.9688 24.9844C23.4062 23.599 22.625 22.3854 21.625 21.3438C20.6354 20.3021 19.4896 19.4896 18.1875 18.9062C16.8854 18.3125 15.4948 18.0156 14.0156 18.0156H5.79688C5.94271 18.151 6.09896 18.2656 6.26562 18.3594L19.6719 25.6719C19.8698 25.7865 20 25.9583 20.0625 26.1875C20.1354 26.4062 20.1146 26.6198 20 26.8281C19.8542 27.1198 19.6094 27.2656 19.2656 27.2656C19.1302 27.2656 18.9948 27.2292 18.8594 27.1562L5.67188 19.9531C5.78646 21.4323 6.14583 22.8073 6.75 24.0781C7.35417 25.349 8.14062 26.4583 9.10938 27.4062C10.0885 28.3542 11.2031 29.0938 12.4531 29.625C13.7031 30.1562 15.026 30.4219 16.4219 30.4219ZM29.2812 0.59375C29.2812 0.4375 29.224 0.302083 29.1094 0.1875C28.9948 0.0729167 28.8594 0.015625 28.7031 0.015625C28.5469 0.015625 28.4115 0.0729167 28.2969 0.1875C28.1927 0.302083 28.1406 0.4375 28.1406 0.59375V2.53125L27.7812 2.8125H22.1719C20.9531 2.8125 19.8125 3.05729 18.75 3.54688C17.6979 4.03646 16.7708 4.70833 15.9688 5.5625C15.1667 6.41667 14.5417 7.40104 14.0938 8.51562C13.6458 9.63021 13.4219 10.8073 13.4219 12.0469V12.5312C13.4219 12.9375 13.5625 13.2917 13.8438 13.5938C14.125 13.8958 14.4792 14.0469 14.9062 14.0469H20.5312C21.7396 14.0469 22.875 13.8125 23.9375 13.3438C25 12.875 25.9271 12.224 26.7188 11.3906C27.5208 10.5573 28.1458 9.59375 28.5938 8.5C29.0521 7.40625 29.2812 6.23438 29.2812 4.98438V0.59375ZM27.9375 3.9375C27.7917 4.19792 27.5885 4.40104 27.3281 4.54688L18.2188 9.51562C18.0833 9.58854 17.9896 9.70312 17.9375 9.85938C17.8958 10.0052 17.9167 10.151 18 10.2969C18.1042 10.4948 18.2708 10.5938 18.5 10.5938C18.6042 10.5938 18.6979 10.5729 18.7812 10.5312L27.875 5.5625C27.9688 5.51042 28.0573 5.45312 28.1406 5.39062C28.0781 6.79688 27.6979 8.07292 27 9.21875C26.3021 10.3542 25.3854 11.2552 24.25 11.9219C23.125 12.5885 21.8854 12.9219 20.5312 12.9219H14.9062C14.6667 12.9219 14.5469 12.7917 14.5469 12.5312V12.0469C14.5469 10.5781 14.8906 9.22917 15.5781 8C16.2656 6.77083 17.1875 5.78646 18.3438 5.04688C19.5 4.30729 20.776 3.9375 22.1719 3.9375H27.9375Z" fill="#F5FDF7"/>
</svg>
