<svg width="32" height="32" viewBox="0 0 32 32" fill="none" xmlns="http://www.w3.org/2000/svg">
<path d="M15.8906 8.4375C15.5677 8.23958 15.1823 7.89062 14.7344 7.39062C14.2969 6.89062 14.0781 6.18229 14.0781 5.26562C14.0781 4.88021 14.1719 4.50521 14.3594 4.14062C14.5573 3.77604 14.7812 3.40625 15.0312 3.03125C15.3021 2.625 15.5573 2.19792 15.7969 1.75C16.0469 1.30208 16.2083 0.796875 16.2812 0.234375C16.3021 0.130208 16.3646 0.0677083 16.4688 0.046875C16.5833 0.015625 16.6667 0.046875 16.7188 0.140625C16.9271 0.442708 17.125 0.875 17.3125 1.4375C17.5 2 17.5052 2.65625 17.3281 3.40625C17.2344 3.80208 17.125 4.13021 17 4.39062C16.8854 4.64062 16.776 4.86979 16.6719 5.07812C16.474 5.44271 16.3177 5.82292 16.2031 6.21875C16.099 6.61458 16.1146 7.27083 16.25 8.1875C16.2708 8.29167 16.2344 8.375 16.1406 8.4375C16.0573 8.48958 15.974 8.48958 15.8906 8.4375ZM7.8125 9.04688C7.84375 9.04688 7.86979 9.04688 7.89062 9.04688C7.90104 9.04688 7.92188 9.04688 7.95312 9.04688H28.2188C28.8229 9.04688 29.3385 9.26042 29.7656 9.6875C30.1927 10.1146 30.4062 10.6302 30.4062 11.2344V21.9219C30.4062 23.5052 30.0104 24.9531 29.2188 26.2656C28.4375 27.5677 27.4062 28.5833 26.125 29.3125H30.4062C30.7188 29.3125 30.9844 29.4219 31.2031 29.6406C31.4219 29.8594 31.5312 30.125 31.5312 30.4375C31.5312 30.75 31.4219 31.0156 31.2031 31.2344C30.9844 31.4531 30.7188 31.5625 30.4062 31.5625H1.125C0.8125 31.5625 0.546875 31.4531 0.328125 31.2344C0.109375 31.0156 0 30.75 0 30.4375C0 30.125 0.109375 29.8594 0.328125 29.6406C0.546875 29.4219 0.8125 29.3125 1.125 29.3125H5.40625C4.125 28.5833 3.08854 27.5677 2.29688 26.2656C1.51562 24.9531 1.125 23.5052 1.125 21.9219V11.2344C1.125 10.6302 1.33854 10.1146 1.76562 9.6875C2.19271 9.26042 2.70833 9.04688 3.3125 9.04688H7.8125ZM3.375 11.2969V21.9219C3.375 23.0781 3.65625 24.1302 4.21875 25.0781C4.79167 26.026 5.55208 26.7812 6.5 27.3438C7.44792 27.9062 8.49479 28.1875 9.64062 28.1875H21.8906C23.0469 28.1875 24.099 27.9062 25.0469 27.3438C25.9948 26.7812 26.75 26.026 27.3125 25.0781C27.875 24.1302 28.1562 23.0781 28.1562 21.9219V11.2969H8.73438V12.9844L10.7969 14.3906C11.1094 14.599 11.2656 14.8958 11.2656 15.2812V20.7188C11.2656 20.9167 11.1979 21.0833 11.0625 21.2188C10.9271 21.3542 10.7604 21.4219 10.5625 21.4219H5.20312C5.01562 21.4219 4.84896 21.3542 4.70312 21.2188C4.56771 21.0833 4.5 20.9167 4.5 20.7188V15.2812C4.5 14.8958 4.66146 14.599 4.98438 14.3906L7.04688 13V11.2969H3.375ZM10.0625 8.1875C9.92708 7.27083 9.91146 6.61458 10.0156 6.21875C10.1302 5.82292 10.2812 5.44271 10.4688 5.07812C10.5833 4.86979 10.6979 4.64062 10.8125 4.39062C10.9271 4.13021 11.0312 3.80208 11.125 3.40625C11.3125 2.65625 11.3125 2 11.125 1.4375C10.9375 0.875 10.7396 0.442708 10.5312 0.140625C10.4688 0.046875 10.3854 0.015625 10.2812 0.046875C10.1771 0.0677083 10.1146 0.130208 10.0938 0.234375C10.0104 0.796875 9.84375 1.30208 9.59375 1.75C9.35417 2.19792 9.10417 2.625 8.84375 3.03125C8.59375 3.40625 8.36979 3.77604 8.17188 4.14062C7.98438 4.50521 7.89062 4.88021 7.89062 5.26562C7.89062 6.18229 8.10938 6.89062 8.54688 7.39062C8.98438 7.89062 9.36979 8.23958 9.70312 8.4375C9.78646 8.48958 9.86979 8.48958 9.95312 8.4375C10.0365 8.375 10.0729 8.29167 10.0625 8.1875ZM22.0781 8.4375C21.7552 8.23958 21.3698 7.89062 20.9219 7.39062C20.4844 6.89062 20.2656 6.18229 20.2656 5.26562C20.2656 4.88021 20.3594 4.50521 20.5469 4.14062C20.7448 3.77604 20.9688 3.40625 21.2188 3.03125C21.4896 2.625 21.7448 2.19792 21.9844 1.75C22.2344 1.30208 22.3958 0.796875 22.4688 0.234375C22.4896 0.130208 22.5521 0.0677083 22.6562 0.046875C22.7708 0.015625 22.8542 0.046875 22.9062 0.140625C23.1146 0.442708 23.3125 0.875 23.5 1.4375C23.6875 2 23.6927 2.65625 23.5156 3.40625C23.4219 3.80208 23.3125 4.13021 23.1875 4.39062C23.0729 4.64062 22.9635 4.86979 22.8594 5.07812C22.6615 5.44271 22.5052 5.82292 22.3906 6.21875C22.2865 6.61458 22.3021 7.27083 22.4375 8.1875C22.4583 8.29167 22.4219 8.375 22.3281 8.4375C22.2448 8.48958 22.1615 8.48958 22.0781 8.4375Z" fill="#F5FDF7"/>
</svg>
