<svg width="32" height="29" viewBox="0 0 32 29" fill="none" xmlns="http://www.w3.org/2000/svg">
<path d="M16.75 2.375C17.7812 2.53125 18.75 2.84375 19.6562 3.3125C20.5625 3.78125 21.3698 4.36979 22.0781 5.07812H23.9375C24.1771 5.07812 24.3802 5.16146 24.5469 5.32812C24.7135 5.48438 24.7969 5.68229 24.7969 5.92188C24.7969 6.15104 24.7135 6.34896 24.5469 6.51562C24.3802 6.68229 24.1771 6.76562 23.9375 6.76562H23.7188L24.9688 9.75C25.6875 9.26042 26.474 9.01562 27.3281 9.01562C28.1094 9.01562 28.8177 9.20312 29.4531 9.57812C30.0885 9.95312 30.5938 10.4583 30.9688 11.0938C31.3438 11.7292 31.5312 12.4375 31.5312 13.2188C31.5312 14.3854 31.2656 15.4688 30.7344 16.4688C30.2135 17.4583 29.5 18.2812 28.5938 18.9375C27.6979 19.5938 26.6875 20.0104 25.5625 20.1875C25.0208 21.4375 24.276 22.5573 23.3281 23.5469C22.3802 24.526 21.2969 25.3125 20.0781 25.9062H20.1562L21.2344 26.9688C21.4635 27.1875 21.5156 27.4375 21.3906 27.7188C21.276 28.0104 21.0625 28.1562 20.75 28.1562H9.59375C9.28125 28.1562 9.06771 28.0104 8.95312 27.7188C8.83854 27.4375 8.89062 27.1875 9.10938 26.9688L10.2031 25.9062C9.24479 25.4375 8.36458 24.849 7.5625 24.1406C7.35417 23.9531 7.15625 23.7604 6.96875 23.5625L2.8125 19.625C1.91667 18.7708 1.22396 17.7708 0.734375 16.625C0.244792 15.4792 0 14.2917 0 13.0625V7.35938C0 7.19271 0.0572917 7.05208 0.171875 6.9375C0.296875 6.82292 0.4375 6.76562 0.59375 6.76562H3.17188C3.33854 6.76562 3.47917 6.82292 3.59375 6.9375C3.71875 7.05208 3.78125 7.19271 3.78125 7.35938V9.73438C3.78125 10.3385 4.04167 10.776 4.5625 11.0469L4.73438 11.125L6.5625 6.76562H6.48438C6.24479 6.76562 6.04167 6.68229 5.875 6.51562C5.71875 6.34896 5.64062 6.15104 5.64062 5.92188C5.64062 5.68229 5.71875 5.48438 5.875 5.32812C6.04167 5.16146 6.24479 5.07812 6.48438 5.07812H8.35938C9.06771 4.36979 9.875 3.78125 10.7812 3.3125C11.6875 2.84375 12.6562 2.53125 13.6875 2.375C13.5833 2.15625 13.5312 1.92708 13.5312 1.6875C13.5312 1.21875 13.6927 0.822917 14.0156 0.5C14.349 0.166667 14.75 0 15.2188 0C15.6771 0 16.0677 0.166667 16.3906 0.5C16.724 0.822917 16.8906 1.21875 16.8906 1.6875C16.8906 1.92708 16.8438 2.15625 16.75 2.375ZM26.3125 17.6562C27.1875 17.2917 27.901 16.7083 28.4531 15.9062C29.0052 15.1042 29.2812 14.2083 29.2812 13.2188C29.2812 12.6771 29.0885 12.2188 28.7031 11.8438C28.3281 11.4583 27.8698 11.2656 27.3281 11.2656C26.7344 11.2656 26.2448 11.4896 25.8594 11.9375C26.276 13.1354 26.4844 14.3802 26.4844 15.6719C26.4844 16.3385 26.4271 17 26.3125 17.6562Z" fill="#F5FDF7"/>
</svg>
