<svg width="29" height="34" viewBox="0 0 29 34" fill="none" xmlns="http://www.w3.org/2000/svg">
<path d="M23.6562 1C24.1875 2.08333 24.4792 3.19792 24.5312 4.34375C24.5833 5.48958 24.4271 6.59375 24.0625 7.65625C23.6979 8.71875 23.1406 9.6875 22.3906 10.5625C21.6406 11.4271 20.724 12.1198 19.6406 12.6406L19.4688 12.7188C18.3229 15.625 16.4792 18 13.9375 19.8438L16.125 20.0781C16.2812 19.0365 16.6667 18.1198 17.2812 17.3281C17.9062 16.526 18.6771 15.9219 19.5938 15.5156C20.5208 15.099 21.5104 14.9479 22.5625 15.0625L28.3125 15.6719L28.2031 16.7812C28.0885 17.8646 27.7188 18.8229 27.0938 19.6562C26.4792 20.4792 25.7031 21.1094 24.7656 21.5469C23.8281 21.974 22.8177 22.1354 21.7344 22.0312L17.2812 21.5625C17.2812 21.5625 17.276 21.5625 17.2656 21.5625C17.2656 21.5625 17.2604 21.5625 17.25 21.5625L16.6875 21.5L15.9688 21.4219L12.3281 21.0312C10.2344 22.7917 8.74479 24.9583 7.85938 27.5312L7.54688 28.4219L9.64062 28.6406C9.81771 27.3594 10.2865 26.2292 11.0469 25.25C11.8073 24.2708 12.7552 23.526 13.8906 23.0156C15.0365 22.5052 16.2552 22.3177 17.5469 22.4531L24.5938 23.1875L24.4844 24.3125C24.349 25.6354 23.901 26.8073 23.1406 27.8281C22.3802 28.8385 21.4219 29.6094 20.2656 30.1406C19.1198 30.6719 17.8854 30.8698 16.5625 30.7344L11.4531 30.1875C11.4219 30.1979 11.3958 30.1979 11.375 30.1875L7.09375 29.75L5.95312 33.0156L4.67188 32.5781L5.65625 29.7344L3.48438 25.2812C3.47396 25.25 3.46354 25.2135 3.45312 25.1719L0.875 19.9062C0.291667 18.7083 0.0520833 17.4792 0.15625 16.2188C0.260417 14.9479 0.661458 13.7865 1.35938 12.7344C2.05729 11.6719 3.00521 10.849 4.20312 10.2656L5.20312 9.76562L8.3125 16.1406C8.88542 17.3073 9.125 18.5104 9.03125 19.75C8.9375 20.9896 8.5625 22.1354 7.90625 23.1875C7.25 24.2396 6.34896 25.0677 5.20312 25.6719L6.28125 27.9062L6.57812 27.0781C7.07812 25.6198 7.77604 24.2604 8.67188 23C9.57812 21.7292 10.6354 20.6198 11.8438 19.6719L9.9375 15.75C9.92708 15.7292 9.91667 15.6979 9.90625 15.6562L8.17188 12.1094C7.70312 11.1302 7.51042 10.125 7.59375 9.09375C7.67708 8.0625 8 7.11458 8.5625 6.25C9.13542 5.38542 9.91146 4.71354 10.8906 4.23438L11.9062 3.75L14.4375 8.95312C14.8958 9.90104 15.0885 10.8802 15.0156 11.8906C14.9427 12.8906 14.6406 13.8229 14.1094 14.6875C13.5781 15.5417 12.849 16.2135 11.9219 16.7031L12.9688 18.8438C15.3646 17.1667 17.1042 14.974 18.1875 12.2656L18.125 12.125C17.6042 11.0417 17.3125 9.93229 17.25 8.79688C17.1979 7.65104 17.3542 6.54688 17.7188 5.48438C18.0938 4.41146 18.6562 3.44271 19.4062 2.57812C20.1562 1.71354 21.0729 1.01562 22.1562 0.484375L23.1562 0L23.6562 1ZM19.75 9.95312C20.7812 9.16146 21.5104 8.14583 21.9375 6.90625C22.3646 5.66667 22.4062 4.42188 22.0625 3.17188C21.0312 3.95312 20.2969 4.96354 19.8594 6.20312C19.4323 7.43229 19.3802 8.67708 19.7031 9.9375C19.7135 9.9375 19.724 9.94271 19.7344 9.95312C19.7448 9.95312 19.75 9.95312 19.75 9.95312ZM10.2031 11.125L11.6719 14.1406C12.224 13.599 12.5729 12.9427 12.7188 12.1719C12.8646 11.401 12.7604 10.6562 12.4062 9.9375L10.9375 6.92188C10.3854 7.44271 10.0365 8.09375 9.89062 8.875C9.74479 9.64583 9.84896 10.3958 10.2031 11.125ZM2.90625 18.9062L4.96875 23.1406C5.84375 22.4323 6.41146 21.5208 6.67188 20.4062C6.93229 19.2812 6.80729 18.1875 6.29688 17.125L4.23438 12.8906C3.35938 13.6094 2.78646 14.5312 2.51562 15.6562C2.25521 16.7708 2.38542 17.8542 2.90625 18.9062ZM21.9688 19.7812C22.7708 19.8646 23.5104 19.7083 24.1875 19.3125C24.8646 18.9062 25.3594 18.3542 25.6719 17.6562L22.3281 17.3125C21.526 17.2188 20.7865 17.375 20.1094 17.7812C19.4323 18.1875 18.9375 18.7396 18.625 19.4375L21.9688 19.7812ZM12.1094 28L16.7969 28.4844C17.9635 28.6094 19.0312 28.3594 20 27.7344C20.9688 27.099 21.6354 26.25 22 25.1875L17.3125 24.6875C16.1458 24.5729 15.0781 24.8333 14.1094 25.4688C13.1406 26.0938 12.474 26.9375 12.1094 28Z" fill="#F5FDF7"/>
</svg>
